# xmcd
# 
# Track frame offsets:
#     225
#     35806
#     69981
#     98752
#     130465
#     169170
#     196172
#     228588
#     259589
# 
# Disc length: 3813
# 
# Revision: 3
# Processed by: cddbd v1.5.2PL0 Copyright (c) Steve Scherf et al.
# Submitted via: fre:ac v1.0.17
# 
DISCID=7b0ee209
DTITLE=Marcus Miller - A Night In Monte-Carlo
DYEAR=2010
DGENRE=Concord Jazz
TTITLE0=Blast!
TTITLE1=So What
TTITLE2=State Of Mind
TTITLE3=I Loves You Porgy
TTITLE4=Amandla
TTITLE5=I'm Glad There Is You
TTITLE6=O Mio Babbino Caro Mas Que Nada
TTITLE7=Your Amazing Grace
TTITLE8=Strange Fruit
EXTD=YEAR: 2010
EXTT0=
EXTT1=
EXTT2=
EXTT3=
EXTT4=
EXTT5=
EXTT6=
EXTT7=
EXTT8=
PLAYORDER=
